<?xml version="1.0" encoding="UTF-8" standalone="no"?>
<!-- Created with Inkscape (http://www.inkscape.org/) -->

<svg
   xmlns:dc="http://purl.org/dc/elements/1.1/"
   xmlns:cc="http://creativecommons.org/ns#"
   xmlns:rdf="http://www.w3.org/1999/02/22-rdf-syntax-ns#"
   xmlns:svg="http://www.w3.org/2000/svg"
   xmlns="http://www.w3.org/2000/svg"
   xmlns:sodipodi="http://sodipodi.sourceforge.net/DTD/sodipodi-0.dtd"
   xmlns:inkscape="http://www.inkscape.org/namespaces/inkscape"
   width="10in"
   height="10in"
   viewBox="0 0 210 297"
   version="1.1"
   id="svg2003"
   sodipodi:docname="favorite.svg"
   inkscape:version="0.92.4 (5da689c313, 2019-01-14)">
  <defs
     id="defs1997" />
  <sodipodi:namedview
     id="base"
     pagecolor="#ffffff"
     bordercolor="#666666"
     borderopacity="1.0"
     inkscape:pageopacity="0.0"
     inkscape:pageshadow="2"
     inkscape:zoom="0.98994949"
     inkscape:cx="20.900052"
     inkscape:cy="253.91623"
     inkscape:document-units="mm"
     inkscape:current-layer="layer1"
     showgrid="false"
     inkscape:window-width="1920"
     inkscape:window-height="1017"
     inkscape:window-x="-8"
     inkscape:window-y="-8"
     inkscape:window-maximized="1" />
  <metadata
     id="metadata2000">
    <rdf:RDF>
      <cc:Work
         rdf:about="">
        <dc:format>image/svg+xml</dc:format>
        <dc:type
           rdf:resource="http://purl.org/dc/dcmitype/StillImage" />
        <dc:title />
      </cc:Work>
    </rdf:RDF>
  </metadata>
  <g
     inkscape:label="Layer 1"
     inkscape:groupmode="layer"
     id="layer1">
    <path
       style="fill:#8c8c8c;fill-opacity:1;stroke-width:9"
       d="M 72.97945,264.46072 C 31.765284,239.84904 -15.057734,194.93813 -30.767906,164.95006 -37.770728,151.58356 -43.5,123.93457 -43.5,103.50792 -43.5,74.459451 -37.769027,60.637878 -17.192221,40.060974 12.824977,10.043461 44.692289,6.3513289 82.2535,28.5394 c 23.21745,13.714975 26.56052,13.714975 46.14134,0 C 160.91662,5.7602129 197.11243,9.9812789 227.19221,40.060974 249.41777,62.286609 253.5,73.518081 253.5,112.4465 c 0,42.08122 -3.45464,49.77107 -39.82835,88.65762 -21.90547,23.41878 -55.55215,51.41675 -74.77037,62.21827 l -34.94233,19.63858 z"
       id="path2668"
       inkscape:connector-curvature="0" />
  </g>
</svg>
