<?xml version="1.0" encoding="UTF-8" standalone="no"?>
<!-- Created with Inkscape (http://www.inkscape.org/) -->

<svg
   xmlns:dc="http://purl.org/dc/elements/1.1/"
   xmlns:cc="http://creativecommons.org/ns#"
   xmlns:rdf="http://www.w3.org/1999/02/22-rdf-syntax-ns#"
   xmlns:svg="http://www.w3.org/2000/svg"
   xmlns="http://www.w3.org/2000/svg"
   xmlns:sodipodi="http://sodipodi.sourceforge.net/DTD/sodipodi-0.dtd"
   xmlns:inkscape="http://www.inkscape.org/namespaces/inkscape"
   width="10in"
   height="10in"
   viewBox="0 0 210 297"
   version="1.1"
   id="svg2003"
   sodipodi:docname="next.svg"
   inkscape:version="0.92.4 (5da689c313, 2019-01-14)">
  <defs
     id="defs1997" />
  <sodipodi:namedview
     id="base"
     pagecolor="#ffffff"
     bordercolor="#666666"
     borderopacity="1.0"
     inkscape:pageopacity="0.0"
     inkscape:pageshadow="2"
     inkscape:zoom="0.98994949"
     inkscape:cx="-43.701481"
     inkscape:cy="253.91623"
     inkscape:document-units="mm"
     inkscape:current-layer="layer1"
     showgrid="false"
     inkscape:window-width="1920"
     inkscape:window-height="1017"
     inkscape:window-x="-8"
     inkscape:window-y="-8"
     inkscape:window-maximized="1" />
  <metadata
     id="metadata2000">
    <rdf:RDF>
      <cc:Work
         rdf:about="">
        <dc:format>image/svg+xml</dc:format>
        <dc:type
           rdf:resource="http://purl.org/dc/dcmitype/StillImage" />
        <dc:title />
      </cc:Work>
    </rdf:RDF>
  </metadata>
  <g
     inkscape:label="Layer 1"
     inkscape:groupmode="layer"
     id="layer1">
    <path
       style="fill:#8c8c8c;fill-opacity:1;stroke-width:6.18358994"
       d="m -40.988623,247.93563 c -6.218335,-16.20479 0.243059,-204.301531 7.097554,-206.57904 3.706649,-1.231654 25.1491188,10.365528 47.649363,25.771725 22.500478,15.40643 42.424064,28.0116 44.274815,28.0116 1.85099,0 3.3652,-10.96616 3.3652,-24.36946 0,-41.604204 8.79476,-39.937849 84.430251,15.99725 24.62187,18.208615 46.30624,33.106495 48.18784,33.106495 1.88137,0 3.42082,-13.71414 3.42082,-30.476085 0,-47.31936 29.70554,-66.82437 47.6765,-31.304815 12.05175,23.820475 10.77429,166.33853 -1.65,184.07692 -20.9489,29.90887 -46.02626,12.77859 -46.02626,-31.44037 0,-36.45463 0.6427,-36.56354 -67.98172,11.52287 -28.8179,20.19305 -53.625811,33.40307 -58.917251,31.37236 -5.9727,-2.2927 -9.13995,-12.14547 -9.13995,-28.43579 0,-13.71063 -1.43498,-24.92826 -3.18921,-24.92826 -1.755165,0 -20.398018,12.52174 -41.43056,27.82603 -39.767944,28.9371 -52.589068,33.34231 -57.767158,19.84857 z"
       id="path2596"
       inkscape:connector-curvature="0" />
  </g>
</svg>
