<?xml version="1.0" encoding="UTF-8" standalone="no"?>
<!-- Created with Inkscape (http://www.inkscape.org/) -->

<svg
   xmlns:dc="http://purl.org/dc/elements/1.1/"
   xmlns:cc="http://creativecommons.org/ns#"
   xmlns:rdf="http://www.w3.org/1999/02/22-rdf-syntax-ns#"
   xmlns:svg="http://www.w3.org/2000/svg"
   xmlns="http://www.w3.org/2000/svg"
   xmlns:sodipodi="http://sodipodi.sourceforge.net/DTD/sodipodi-0.dtd"
   xmlns:inkscape="http://www.inkscape.org/namespaces/inkscape"
   width="10in"
   height="10in"
   viewBox="0 0 210 297"
   version="1.1"
   id="svg2003"
   sodipodi:docname="volume_high.svg"
   inkscape:version="0.92.4 (5da689c313, 2019-01-14)">
  <defs
     id="defs1997" />
  <sodipodi:namedview
     id="base"
     pagecolor="#ffffff"
     bordercolor="#666666"
     borderopacity="1.0"
     inkscape:pageopacity="0.0"
     inkscape:pageshadow="2"
     inkscape:zoom="0.98994949"
     inkscape:cx="-43.701481"
     inkscape:cy="253.91623"
     inkscape:document-units="mm"
     inkscape:current-layer="layer1"
     showgrid="false"
     inkscape:window-width="1920"
     inkscape:window-height="1017"
     inkscape:window-x="-8"
     inkscape:window-y="-8"
     inkscape:window-maximized="1" />
  <metadata
     id="metadata2000">
    <rdf:RDF>
      <cc:Work
         rdf:about="">
        <dc:format>image/svg+xml</dc:format>
        <dc:type
           rdf:resource="http://purl.org/dc/dcmitype/StillImage" />
        <dc:title />
      </cc:Work>
    </rdf:RDF>
  </metadata>
  <g
     inkscape:label="Layer 1"
     inkscape:groupmode="layer"
     id="layer1">
    <path
       id="path2616"
       style="fill:#8c8c8c;fill-opacity:1;stroke-width:6.22358418"
       d="m 150.04776,236.4932 c 1.3737,-4.12133 11.27161,-9.76689 21.99491,-12.54557 10.72307,-2.77868 21.37299,-8.08788 23.66617,-11.79827 2.94686,-4.76819 0.42105,-4.73926 -8.61995,0.0941 -18.32686,9.80852 -38.50162,8.50328 -38.50162,-2.49053 0,-5.13443 4.90108,-9.42065 10.89125,-9.52462 10.37259,-0.18817 10.37259,-0.49161 0,-6.53282 -12.99673,-7.57015 -14.34925,-18.17232 -2.31694,-18.17232 24.99329,0 28.2871,-45.15205 3.85929,-52.90521 -17.07359,-5.41881 -15.66508,-15.55429 2.16169,-15.55429 32.57685,0 47.71833,49.71183 22.74715,74.68301 -6.8459,6.8459 -9.80546,12.44725 -6.57634,12.44725 10.70543,0 25.2471,-27.36339 25.2471,-47.50851 0,-14.51909 -5.13843,-24.16813 -19.14826,-35.95676 -10.5316,-8.86175 -23.13433,-16.112242 -28.00624,-16.112242 -4.87169,0 -8.85776,-2.80055 -8.85776,-6.22351 0,-8.28828 28.7192,-7.94509 44.55953,0.53161 6.94305,3.7158 18.16879,19.291732 24.94601,34.613162 12.31999,27.85124 12.31999,27.86229 -0.40693,53.58453 -15.44304,31.2135 -12.26001,38.69333 4.63999,10.90325 13.98183,-22.99108 12.53287,-60.76445 -3.25501,-84.85989 -5.32237,-8.122932 -23.35849,-19.628112 -40.08043,-25.567232 -34.86885,-12.38421 -39.13155,-20.323897 -10.91148,-20.323897 28.32356,0 58.64722,21.472017 73.4201,51.988319 15.70719,32.447 15.88079,43.51185 1.19023,75.85277 -15.74177,34.6548 -45.89654,58.86668 -73.31638,58.86668 -14.24881,0 -20.95664,-2.60109 -19.32584,-7.49371 z M 58.648691,227.57452 C 24.959714,204.92334 10.311494,198.68619 -7.5526834,199.38621 -38.903553,200.61407 -45.328174,190.49669 -43.098974,143.405 l 1.867663,-39.44086 30.331889,-1.92883 C 12.612436,100.5393 26.606033,94.819638 51.336343,76.592048 68.883441,63.658828 89.247561,49.882107 96.589781,45.977185 120.7859,33.109125 124.16439,47.369699 122.29932,154.50607 c -1.42545,81.85352 -3.3084,98.96334 -11.05285,100.41066 -5.13443,0.95971 -28.803179,-11.34452 -52.596839,-27.34268 z"
       inkscape:connector-curvature="0" />
  </g>
</svg>
