<?xml version="1.0" encoding="UTF-8" standalone="no"?>
<!-- Created with Inkscape (http://www.inkscape.org/) -->

<svg
   xmlns:dc="http://purl.org/dc/elements/1.1/"
   xmlns:cc="http://creativecommons.org/ns#"
   xmlns:rdf="http://www.w3.org/1999/02/22-rdf-syntax-ns#"
   xmlns:svg="http://www.w3.org/2000/svg"
   xmlns="http://www.w3.org/2000/svg"
   xmlns:sodipodi="http://sodipodi.sourceforge.net/DTD/sodipodi-0.dtd"
   xmlns:inkscape="http://www.inkscape.org/namespaces/inkscape"
   width="210mm"
   height="297mm"
   viewBox="0 0 210 297"
   version="1.1"
   id="svg2003"
   sodipodi:docname="new_pack.svg"
   inkscape:version="0.92.4 (5da689c313, 2019-01-14)">
  <defs
     id="defs1997" />
  <sodipodi:namedview
     id="base"
     pagecolor="#ffffff"
     bordercolor="#666666"
     borderopacity="1.0"
     inkscape:pageopacity="0.0"
     inkscape:pageshadow="2"
     inkscape:zoom="0.98994949"
     inkscape:cx="122.97369"
     inkscape:cy="324.63446"
     inkscape:document-units="mm"
     inkscape:current-layer="layer1"
     showgrid="false"
     inkscape:window-width="1920"
     inkscape:window-height="1017"
     inkscape:window-x="-8"
     inkscape:window-y="-8"
     inkscape:window-maximized="1" />
  <metadata
     id="metadata2000">
    <rdf:RDF>
      <cc:Work
         rdf:about="">
        <dc:format>image/svg+xml</dc:format>
        <dc:type
           rdf:resource="http://purl.org/dc/dcmitype/StillImage" />
      </cc:Work>
    </rdf:RDF>
  </metadata>
  <g
     inkscape:label="Layer 1"
     inkscape:groupmode="layer"
     id="layer1">
    <path
       style="fill:#8c8c8c;fill-opacity:1;stroke-width:0.26458332"
       d="m 167.17914,293.88248 c 0.16453,-1.48837 0.1476,-1.54112 -0.78061,-2.43315 -0.52184,-0.50149 -0.94879,-1.05332 -0.94879,-1.22628 0,-0.18292 0.61114,-0.39085 1.46075,-0.497 1.42648,-0.17823 1.47624,-0.21308 2.12112,-1.48569 0.36321,-0.71676 0.74767,-1.30285 0.85436,-1.30243 0.10669,5.3e-4 0.49163,0.56597 0.85544,1.25678 0.6198,1.1769 0.74893,1.27154 2.05052,1.50272 0.76398,0.1357 1.38906,0.3688 1.38906,0.51801 0,0.14921 -0.43391,0.71565 -0.96424,1.25876 -0.95525,0.97827 -0.96176,1.00003 -0.69813,2.33332 0.14636,0.74021 0.16763,1.4067 0.0473,1.48108 -0.12036,0.0744 -0.69443,-0.10738 -1.2757,-0.40392 -1.31349,-0.67009 -1.63402,-0.67119 -2.93004,-0.01 -0.57048,0.29104 -1.10743,0.52917 -1.19322,0.52917 -0.0858,0 -0.0803,-0.68461 0.0122,-1.52136 z"
       id="path2670"
       inkscape:connector-curvature="0" />
    <path
       style="fill:#8c8c8c;fill-opacity:1;stroke-width:0.26458332"
       d="m 191.62819,294.57209 c -1.21162,-0.72354 -2.58813,-2.04384 -3.04998,-2.92543 -0.20587,-0.39295 -0.3743,-1.20578 -0.3743,-1.80629 0,-0.85397 0.16848,-1.2603 0.7734,-1.86522 0.88245,-0.88246 1.81929,-0.991 2.92352,-0.33871 0.68255,0.40319 0.78083,0.40319 1.35647,0 0.95608,-0.66967 2.02017,-0.54558 2.90446,0.33871 0.65339,0.65339 0.7734,0.98358 0.7734,2.128 0,1.23711 -0.10156,1.46318 -1.17088,2.60637 -0.64398,0.68847 -1.63313,1.51156 -2.19811,1.8291 l -1.02724,0.57734 z"
       id="path2668"
       inkscape:connector-curvature="0" />
    <path
       style="fill:#8c8c8c;fill-opacity:1;stroke-width:0.26458332"
       d="m 152.61196,288.27481 c -0.67193,0 -0.92604,0.97031 -0.92604,3.53569 0,1.93091 0.0964,2.6084 0.416,2.92799 0.22868,0.22868 0.45804,0.41547 0.51004,0.41547 0.052,0 0.28189,-0.18679 0.51057,-0.41547 0.31957,-0.31959 0.41548,-0.99708 0.41548,-2.92799 0,-2.56538 -0.25412,-3.53569 -0.92605,-3.53569 z m 2.51355,1.45521 c -0.6499,0 -0.66296,0.041 -0.73846,2.34147 -0.0492,1.49868 0.0341,2.47467 0.23099,2.71198 0.16921,0.20389 0.39758,0.37049 0.50747,0.37049 0.59705,0 0.81045,-0.8899 0.73845,-3.08247 -0.0755,-2.30048 -0.0885,-2.34147 -0.73845,-2.34147 z m 2.51354,0.92604 c -0.74578,0 -0.92604,0.43814 -0.92604,2.25154 0,0.93329 0.14169,1.5566 0.41599,1.83089 0.22867,0.22868 0.45805,0.41547 0.51005,0.41547 0.052,0 0.28189,-0.18679 0.51056,-0.41547 0.27429,-0.27429 0.41548,-0.8976 0.41548,-1.83089 0,-1.8134 -0.18026,-2.25154 -0.92604,-2.25154 z m -7.54063,1.19061 c -0.60296,0 -0.66881,0.11309 -0.7431,1.27746 -0.0456,0.71475 0.0562,1.44307 0.23099,1.65365 0.17178,0.20698 0.40222,0.37618 0.51211,0.37618 0.50427,0 0.81791,-0.8565 0.74311,-2.02983 -0.0743,-1.16437 -0.14015,-1.27746 -0.74311,-1.27746 z"
       id="path2644"
       inkscape:connector-curvature="0" />
    <path
       id="path2616"
       style="fill:#8c8c8c;fill-opacity:1;stroke-width:0.26458332"
       d="m 115.50422,295.37368 c 0.0584,-0.17521 0.47919,-0.41522 0.93507,-0.53335 0.45587,-0.11813 0.90863,-0.34384 1.00612,-0.50158 0.12528,-0.20271 0.0179,-0.20148 -0.36646,0.004 -0.77913,0.41699 -1.63682,0.3615 -1.63682,-0.10588 0,-0.21828 0.20836,-0.4005 0.46302,-0.40492 0.44097,-0.008 0.44097,-0.0209 0,-0.27773 -0.55253,-0.32183 -0.61003,-0.77256 -0.0985,-0.77256 1.06254,0 1.20257,-1.91955 0.16407,-2.24916 -0.72585,-0.23037 -0.66597,-0.66126 0.0919,-0.66126 1.38494,0 2.02865,2.1134 0.96705,3.175 -0.29104,0.29104 -0.41686,0.52917 -0.27958,0.52917 0.45512,0 1.07333,-1.1633 1.07333,-2.01973 0,-0.61725 -0.21845,-1.02746 -0.81405,-1.52863 -0.44773,-0.37674 -0.98351,-0.68498 -1.19063,-0.68498 -0.20711,0 -0.37657,-0.11906 -0.37657,-0.26458 0,-0.35236 1.22094,-0.33777 1.89436,0.0226 0.29517,0.15797 0.77241,0.82015 1.06053,1.47151 0.52376,1.18404 0.52376,1.18451 -0.0173,2.27804 -0.65653,1.32698 -0.52121,1.64497 0.19726,0.46353 0.59441,-0.97742 0.53281,-2.58328 -0.13838,-3.60765 -0.22627,-0.34533 -0.99304,-0.83445 -1.70394,-1.08694 -1.48238,-0.52649 -1.6636,-0.86403 -0.46388,-0.86403 1.20412,0 2.49327,0.91284 3.12131,2.21018 0.66776,1.37942 0.67514,1.84982 0.0506,3.22473 -0.66923,1.47328 -1.9512,2.5026 -3.1169,2.5026 -0.60576,0 -0.89093,-0.11058 -0.8216,-0.31858 z m -3.88565,-0.37916 c -1.43222,-0.96297 -2.05496,-1.22813 -2.81442,-1.19837 -1.33282,0.0522 -1.60595,-0.37792 -1.51118,-2.37993 l 0.0794,-1.67675 1.2895,-0.082 c 0.99956,-0.0636 1.59447,-0.30676 2.64583,-1.08167 0.74598,-0.54983 1.61172,-1.13552 1.92386,-1.30153 1.02865,-0.54706 1.17228,0.0592 1.09299,4.61389 -0.0606,3.47984 -0.14065,4.20723 -0.46989,4.26876 -0.21828,0.0408 -1.22451,-0.48229 -2.23605,-1.16242 z"
       inkscape:connector-curvature="0" />
    <path
       id="path2612"
       style="fill:#8c8c8c;fill-opacity:1;stroke-width:0.26458332"
       d="m 94.418204,293.32792 c -0.0842,-0.13622 0.17668,-0.40523 0.5797,-0.59779 0.98877,-0.47244 1.09078,-1.37569 0.21981,-1.94637 -0.80456,-0.52717 -0.87536,-0.91233 -0.1677,-0.91233 0.76569,0 1.67046,1.28865 1.47808,2.10522 -0.26351,1.11854 -1.68935,2.03172 -2.10989,1.35128 z m -3.71461,1.6989 c -1.23968,-0.91522 -1.81939,-1.17446 -2.64584,-1.18321 -1.62301,-0.0172 -1.75663,-0.19964 -1.6667,-2.27575 l 0.0792,-1.8284 1.32292,-0.14457 c 1.02134,-0.11162 1.73439,-0.43598 3.12796,-1.42288 1.38336,-0.97967 1.87784,-1.20567 2.11666,-0.96741 0.35763,0.35679 0.58887,6.06998 0.31862,7.87215 -0.22085,1.47272 -0.60006,1.46558 -2.65283,-0.0499 z"
       inkscape:connector-curvature="0" />
    <path
       id="path2610"
       style="fill:#8c8c8c;fill-opacity:1;stroke-width:0.26458332"
       d="m 134.90858,291.32128 c -0.1014,-0.26423 -0.0447,-0.70413 0.12611,-0.97755 0.24757,-0.39641 0.22126,-0.63328 -0.12987,-1.16916 -0.62322,-0.95117 -0.12367,-1.42567 0.83775,-0.79572 0.66153,0.43345 0.72381,0.43308 1.21046,-0.007 0.72584,-0.65688 1.24889,-0.13643 0.81654,0.81248 -0.22864,0.5018 -0.22933,0.83395 -0.003,1.33121 0.40675,0.8927 0.0766,1.13875 -0.82994,0.61848 -0.70698,-0.40575 -0.7766,-0.39932 -1.29553,0.11961 -0.51873,0.51873 -0.55837,0.52241 -0.73276,0.068 z m -3.9373,1.84906 c -1.25174,-0.92867 -1.81463,-1.1802 -2.66141,-1.18923 -1.78009,-0.019 -2.07264,-0.41117 -1.85095,-2.48127 l 0.18885,-1.76352 h 1.21737 c 1.03435,0 1.51431,-0.20528 3.19255,-1.36544 2.67251,-1.84751 2.72926,-1.76687 2.63199,3.73989 -0.0861,4.87399 -0.16026,4.95746 -2.7184,3.05957 z"
       inkscape:connector-curvature="0" />
    <path
       style="fill:#8c8c8c;fill-opacity:1;stroke-width:0.26458332"
       d="m -7.9411225,292.24493 c -0.15115,-0.28242 -0.27389,-2.1612 -0.27389,-4.19232 0,-3.22964 0.0593,-3.7342 0.48385,-4.11844 0.26612,-0.24083 0.61656,-0.43788 0.77875,-0.43788 0.55407,0 1.11865,1.17471 1.11865,2.32756 v 1.15149 l 2.52629,-1.76134 c 2.77441004,-1.93434 3.29454004,-1.97067 3.29454004,-0.23011 0,0.49151 0.0592,0.89365 0.13155,0.89365 0.0724,0 0.85935,-0.53578 1.74889996,-1.19062 0.88954,-0.65485 1.71912,-1.19063 1.84351,-1.19063 0.56304,0 0.77396,1.28725 0.77396,4.72347 0,2.03496 -0.0723,3.88825 -0.1606,4.11843 -0.25552,0.66586 -0.79322,0.50082 -2.55555,-0.7844 -1.58108996,-1.15304 -1.65254996,-1.17772 -1.72354996,-0.59531 -0.16029,1.31486 -0.34815,1.79823 -0.69887,1.79823 -0.2013,0 -1.41942004,-0.75817 -2.70694004,-1.68482 l -2.34095,-1.68481 -0.0833,1.21988 c -0.1274,1.86649 -1.483,2.8962 -2.15638,1.63797 z"
       id="path2602"
       inkscape:connector-curvature="0" />
    <path
       style="fill:#8c8c8c;fill-opacity:1;stroke-width:0.26458332"
       d="m 18.17931,290.79016 c -1.52686,-1.0816 -2.84328,-2.14158 -2.92538,-2.35553 -0.0821,-0.21394 -0.009,-0.56539 0.16329,-0.78099 0.34514,-0.43286 5.04944,-3.84878 5.58172,-4.05303 0.47486,-0.18223 0.8907,0.41493 0.99308,1.42609 l 0.0878,0.86682 1.7619,-1.22908 c 0.96905,-0.676 1.89178,-1.14882 2.05052,-1.05071 0.18954,0.11714 0.28862,1.6746 0.28862,4.53669 0,3.56117 -0.0701,4.38521 -0.38326,4.50538 -0.21366,0.082 -1.15033,-0.40029 -2.11667,-1.08986 l -1.73341,-1.23693 v 0.79533 c 0,1.03734 -0.23935,1.63237 -0.65663,1.63237 -0.18448,0 -1.58468,-0.88495 -3.11154,-1.96655 z"
       id="path2600"
       inkscape:connector-curvature="0" />
    <path
       style="fill:#8c8c8c;fill-opacity:1;stroke-width:0.26458332"
       d="m 37.99888,292.58032 c -0.097,-0.097 -0.17639,-2.12482 -0.17639,-4.50622 0,-3.58194 0.0678,-4.35583 0.39224,-4.48035 0.22476,-0.0863 1.12055,0.36919 2.09793,1.06664 0.93813,0.66943 1.77365,1.21715 1.85672,1.21715 0.0831,0 0.15102,-0.46922 0.15102,-1.04272 0,-1.7801 0.26821,-1.73038 3.62581,0.6722 2.65011,1.89631 2.98878,2.20874 2.98878,2.75726 0,0.59043 -5.68036,4.60295 -6.22198,4.39511 -0.25725,-0.0987 -0.39261,-0.5184 -0.39261,-1.2173 0,-0.58665 -0.0614,-1.06663 -0.13646,-1.06663 -0.0751,0 -0.87278,0.53578 -1.77273,1.19062 -1.61117,1.17236 -2.06388,1.3627 -2.41233,1.01424 z"
       id="path2598"
       inkscape:connector-curvature="0" />
    <path
       style="fill:#8c8c8c;fill-opacity:1;stroke-width:0.26458332"
       d="m 59.89989,292.41536 c -0.26607,-0.69337 0.0104,-8.74165 0.30369,-8.8391 0.1586,-0.0527 1.07608,0.44352 2.03882,1.10272 0.96275,0.65921 1.81524,1.19856 1.89443,1.19856 0.0792,0 0.14399,-0.46922 0.14399,-1.04272 0,-1.78016 0.37631,-1.70886 3.6126,0.68449 1.05352,0.77911 1.98135,1.41656 2.06186,1.41656 0.0805,0 0.14637,-0.5868 0.14637,-1.30401 0,-2.0247 1.27104,-2.85928 2.039981,-1.33947 0.51567,1.01923 0.46101,7.11729 -0.0706,7.87628 -0.896361,1.27974 -1.969371,0.54677 -1.969371,-1.34527 0,-1.55982 0.0275,-1.56448 -2.9088,0.49304 -1.23306,0.86402 -2.29454,1.42925 -2.52095,1.34236 -0.25556,-0.0981 -0.39108,-0.51968 -0.39108,-1.21671 0,-0.58665 -0.0614,-1.06663 -0.13646,-1.06663 -0.0751,0 -0.87279,0.53578 -1.77273,1.19062 -1.70159,1.23816 -2.25018,1.42665 -2.47174,0.84928 z"
       id="path2596"
       inkscape:connector-curvature="0" />
    <path
       style="fill:#8c8c8c;fill-opacity:1;stroke-width:0.26458332"
       d="m -94.694386,294.72786 c -0.31111,-0.31111 -0.20452,-8.77082 0.11298,-8.96705 0.28364,-0.1753 3.76686,2.06817 5.553,3.57657 1.1766,0.99366 1.04482,1.20223 -2.2983,3.63749 -2.57332,1.8745 -3.01583,2.10485 -3.36768,1.75299 z"
       id="path2590"
       inkscape:connector-curvature="0" />
    <path
       id="path2586"
       style="fill:#8c8c8c;fill-opacity:1;stroke-width:0.26458332"
       d="m -70.500371,293.78498 c -0.4029,-0.4029 -0.44059,-7.68937 -0.0436,-8.43114 0.36655,-0.6849 1.18823,-0.64794 1.69549,0.0763 0.32172,0.45932 0.41187,1.34414 0.41187,4.04218 0,2.69804 -0.0902,3.58285 -0.41187,4.04217 -0.45316,0.64697 -1.15973,0.76269 -1.65188,0.27053 z m -3.34131,-0.0983 c -0.61217,-0.61218 -0.61217,-7.81669 0,-8.42887 0.57486,-0.57485 1.06865,-0.5201 1.5536,0.17226 0.32385,0.46236 0.41188,1.35839 0.41188,4.19233 0,3.15576 -0.0602,3.65878 -0.48385,4.04217 -0.60408,0.54668 -0.95187,0.55187 -1.48163,0.0221 z"
       inkscape:connector-curvature="0" />
    <path
       style="fill:#8c8c8c;fill-opacity:1;stroke-width:0.26458332"
       d="m -52.917479,293.61863 c -0.36362,-0.40179 -0.43789,-1.11285 -0.43789,-4.19233 0,-4.80768 -0.22347,-4.58423 4.5849,-4.58423 4.82554,0 4.67552,-0.14668 4.67552,4.57133 0,4.89327 0.20049,4.68908 -4.6042,4.68908 -3.32642,0 -3.83304,-0.0581 -4.21833,-0.48385 z"
       id="path2584"
       inkscape:connector-curvature="0" />
    <path
       style="fill:#8c8c8c;fill-opacity:1;stroke-width:0.26458332"
       d="m -28.286739,293.55493 c -3.26933,-1.72591 -3.17829,-6.68741 0.15043,-8.1987 1.88769,-0.85703 3.59742,-0.59907 5.03321,0.7594 1.07489,1.01701 1.49773,1.96465 1.49773,3.35661 0,3.4459 -3.6559,5.67987 -6.68137,4.08269 z"
       id="path2582"
       inkscape:connector-curvature="0" />
  </g>
</svg>
